<svg width="583" height="568" viewBox="0 0 583 568" fill="none" xmlns="http://www.w3.org/2000/svg">
<g clip-path="url(#clip0_130_17)">
<path d="M556.091 336.933C564.16 319.932 568.781 300.606 568.781 280.054C568.781 227.821 539.212 183.36 497.675 165.841C497.675 165.783 497.683 165.728 497.683 165.667C497.683 74.1704 430.838 0 348.379 0C278.816 0 220.536 52.8626 203.956 124.306C193.464 120.478 182.279 118.333 170.633 118.333C115.944 118.333 70.9323 164.033 64.7684 222.875C27.7708 231.562 0 267.977 0 311.612C0 361.715 36.6061 402.333 81.7604 402.333C83.0193 402.333 84.2637 402.24 85.4993 402.159C85.4732 403.539 85.3166 404.89 85.3166 406.279C85.3166 495.595 150.569 568 231.065 568C276.831 568 317.629 544.553 344.353 507.936C359.839 525.487 381.368 536.445 405.255 536.445C438.316 536.445 466.925 515.539 481.089 485.027C488.567 487.667 496.523 489.111 504.793 489.111C547.984 489.111 583 450.259 583 402.333C583 376.214 572.549 352.848 556.091 336.933Z" fill="#69C9D0"/>
<path d="M227.989 324.552C209.173 331.965 187.686 322.287 180.084 302.973L119.676 149.502C112.074 130.188 121.195 108.449 140.01 101.036L289.516 42.1331C308.331 34.72 329.819 44.4 337.421 63.7141L397.829 217.185C405.431 236.499 396.31 258.236 377.494 265.649L227.989 324.552Z" fill="#010101"/>
<path d="M290.961 45.8062C307.804 39.1702 327.038 47.8358 333.843 65.1241L394.25 218.595C401.055 235.883 392.891 255.341 376.048 261.977L226.543 320.879C209.7 327.515 190.467 318.852 183.662 301.563L123.254 148.093C116.449 130.804 124.613 111.345 141.456 104.709L290.961 45.8062ZM288.07 38.4604L138.565 97.3631C117.832 105.531 107.723 129.629 116.1 150.911L176.507 304.382C184.883 325.662 208.702 336.393 229.434 328.225L378.939 269.322C399.672 261.154 409.781 237.056 401.405 215.776L340.997 62.3052C332.621 41.0232 308.802 30.2922 288.07 38.4604Z" fill="#010101"/>
<path d="M324.013 109.148C324.013 109.148 288.233 123.245 266.6 83.2829L235.931 95.3659L279.3 205.55L285.242 221.392C288.594 233.688 282.584 246.68 270.756 251.34C258.054 256.345 243.594 249.831 238.461 236.791C233.329 223.753 239.468 209.124 252.169 204.119C253.043 203.775 253.943 203.613 254.829 203.373L242.386 171.761C241.515 172.057 240.641 172.298 239.778 172.638C210.137 184.316 195.819 218.448 207.794 248.873C219.771 279.3 253.507 294.5 283.148 282.822C311.925 271.484 326.186 238.987 316.038 209.258L316.165 209.208L289.813 142.258C303.285 146.787 318.944 147.509 336.404 140.63C332.274 130.135 324.013 109.148 324.013 109.148Z" fill="#EE1D52"/>
<path d="M312.034 198.713C311.33 198.991 310.525 198.631 310.24 197.906L292.427 152.651C292.142 151.928 292.484 151.113 293.189 150.836C293.894 150.558 294.699 150.92 294.984 151.643L312.797 196.898C313.082 197.624 312.739 198.436 312.034 198.713Z" fill="#010101"/>
<path d="M283.664 284.133C279.581 285.742 275.33 286.882 271.032 287.528C270.28 287.642 269.57 287.111 269.449 286.341C269.325 285.577 269.8 284.863 270.587 284.746C278.771 283.52 286.796 280.359 293.593 275.694C295.102 274.67 296.567 273.552 297.967 272.365C299.727 270.871 301.399 269.268 302.924 267.605C317.144 252.161 321.663 229.974 314.735 209.698C314.494 208.982 314.836 208.217 315.522 207.947C316.227 207.669 317.096 208.004 317.381 208.729C317.451 208.907 317.486 209.088 317.49 209.275C324.536 230.414 319.753 253.466 304.946 269.548C303.346 271.301 301.597 272.978 299.74 274.545C298.274 275.782 296.729 276.962 295.147 278.04C291.596 280.481 287.732 282.53 283.664 284.133Z" fill="#010101"/>
<path d="M237.169 228.197C237.007 228.261 236.826 228.298 236.627 228.289C235.866 228.263 235.255 227.612 235.271 226.837C235.444 216.09 241.875 206.66 251.653 202.808C252.089 202.636 252.527 202.506 252.966 202.392L241.11 172.271C240.825 171.546 241.166 170.732 241.871 170.454C242.576 170.176 243.381 170.539 243.667 171.264L256.109 202.876C256.256 203.248 256.242 203.666 256.07 204.025C255.892 204.379 255.575 204.626 255.208 204.74L254.378 204.946C253.817 205.081 253.244 205.215 252.693 205.432C243.941 208.88 238.191 217.323 238.038 226.94C238.015 227.513 237.666 228.001 237.169 228.197Z" fill="#010101"/>
<path d="M336.92 141.941C329.509 144.861 322.027 146.566 314.674 147.014C313.913 147.059 313.249 146.466 313.195 145.699C313.138 144.924 313.725 144.243 314.459 144.216C321.105 143.808 327.88 142.332 334.607 139.815L323.23 110.91C319.765 112.01 309.854 114.502 298.209 111.66C297.465 111.481 296.994 110.72 297.163 109.962C297.332 109.211 298.073 108.749 298.809 108.925C312.186 112.189 323.388 107.88 323.501 107.835C324.206 107.558 325.01 107.918 325.295 108.643L337.687 140.124C337.965 140.85 337.625 141.663 336.92 141.941Z" fill="#010101"/>
<path d="M269.827 278.979C238.827 291.193 203.411 275.237 190.885 243.415C178.359 211.592 193.392 175.762 224.392 163.548C225.006 163.307 225.62 163.111 226.24 162.917L227.121 162.636C228.51 162.163 230.038 162.893 230.59 164.294L243.033 195.906C243.328 196.657 243.294 197.483 242.95 198.199C242.648 198.815 242.135 199.291 241.511 199.537C241.413 199.575 240.358 199.85 240.358 199.85C239.851 199.971 239.346 200.081 238.849 200.277C227.574 204.719 222.109 217.744 226.665 229.318C231.221 240.893 244.095 246.693 255.371 242.25C265.726 238.17 271.26 226.73 268.227 215.634L262.373 200.045L219.022 89.9081C218.452 88.4599 219.134 86.8323 220.545 86.2761L251.214 74.1931C252.501 73.6862 253.978 74.2434 254.653 75.4944C274.803 112.705 307.262 100.597 308.633 100.061C310.041 99.5138 311.648 100.237 312.217 101.681L324.608 133.162C325.177 134.608 324.496 136.236 323.084 136.792C308.63 142.487 294.195 143.581 280.092 140.064L304.367 201.735C304.499 202.07 304.56 202.422 304.574 202.77C314.722 233.905 299.591 267.253 269.827 278.979Z" fill="white"/>
<path d="M252.248 76.8178C273.88 116.778 309.658 102.682 309.658 102.682C309.658 102.682 317.919 123.669 322.049 134.163C304.589 141.042 288.935 140.326 275.46 135.791L301.812 202.741L301.683 202.792C311.833 232.52 297.572 265.017 268.794 276.354C239.154 288.032 205.417 272.836 193.44 242.409C181.464 211.982 195.784 177.849 225.425 166.171C226.288 165.831 227.162 165.59 228.034 165.296L240.477 196.908C239.591 197.148 238.69 197.308 237.816 197.652C225.115 202.656 218.977 217.288 224.109 230.326C229.241 243.364 243.701 249.877 256.403 244.873C268.231 240.213 274.241 227.223 270.887 214.925L264.948 199.085L221.579 88.9009L252.248 76.8178ZM250.182 71.5706L219.513 83.6536C216.692 84.7652 215.328 88.0182 216.468 90.9146L259.837 201.098L265.644 216.586C268.142 226.219 263.32 236.089 254.339 239.628C244.473 243.515 233.206 238.439 229.22 228.312C225.234 218.185 230.016 206.786 239.882 202.899C240.265 202.748 240.659 202.672 241.049 202.578L241.958 202.353C242.156 202.3 242.348 202.237 242.537 202.162C243.791 201.668 244.816 200.718 245.421 199.482C246.117 198.056 246.176 196.39 245.588 194.894L233.145 163.282C232.042 160.48 228.992 159.016 226.21 159.959L225.391 160.222C224.711 160.44 224.035 160.657 223.36 160.924C190.95 173.693 175.234 211.153 188.329 244.422C201.424 277.692 238.45 294.371 270.86 281.602C301.881 269.38 317.695 234.695 307.283 202.229C307.233 201.727 307.118 201.222 306.923 200.727L284.539 143.857C297.575 146.121 310.842 144.64 324.115 139.411C326.936 138.299 328.303 135.045 327.163 132.149L314.771 100.667C313.631 97.7711 310.414 96.3231 307.593 97.4347C306.331 97.9194 275.969 109.101 257.06 74.1681C255.711 71.6705 252.758 70.5559 250.182 71.5706Z" fill="#010101"/>
<path d="M311.5 107.362C310.385 104.53 309.658 102.682 309.658 102.682C309.658 102.682 296.103 107.98 280.643 102.774C292.806 109.558 304.833 108.721 311.5 107.362Z" fill="#69C9D0"/>
<path d="M241.152 245.634C247.658 249.895 255.922 251.123 263.579 248.107C275.407 243.447 281.418 230.456 278.065 218.158L272.124 202.318L228.754 92.1323L255.236 81.699C254.225 80.1353 253.209 78.5885 252.247 76.8178L221.578 88.9009L264.948 199.085L270.887 214.925C274.241 227.223 268.231 240.213 256.403 244.873C251.358 246.861 246.058 246.967 241.152 245.634Z" fill="#69C9D0"/>
<path d="M200.619 245.642C188.991 216.1 202.195 183.128 230.098 170.541L228.034 165.296C227.162 165.59 226.288 165.831 225.425 166.171C195.784 177.849 181.464 211.982 193.44 242.409C199.954 258.957 212.928 270.948 228.154 276.617C216.092 270.181 206.081 259.518 200.619 245.642Z" fill="#69C9D0"/>
<path d="M254.053 156.406C253.349 156.684 252.544 156.324 252.259 155.599L227.476 92.636C227.192 91.913 227.533 91.0988 228.238 90.8211L254.72 80.3878C255.427 80.1093 256.23 80.4724 256.514 81.1954C256.8 81.9206 256.46 82.734 255.753 83.0125L230.55 92.9421L254.816 154.591C255.101 155.317 254.758 156.129 254.053 156.406Z" fill="#010101"/>
<path d="M272.641 203.629C271.936 203.907 271.131 203.544 270.847 202.821L256.439 166.219C256.154 165.494 256.497 164.682 257.202 164.404C257.906 164.126 258.711 164.487 258.996 165.212L273.403 201.814C273.688 202.537 273.346 203.351 272.641 203.629Z" fill="#010101"/>
<path d="M264.096 249.42C263.391 249.698 262.586 249.335 262.301 248.61C262.016 247.887 262.358 247.073 263.063 246.795C274.074 242.457 279.95 230.301 276.736 218.519L273.883 210.94C273.61 210.218 273.958 209.418 274.653 209.145C274.657 209.143 274.667 209.139 274.673 209.137C275.387 208.868 276.181 209.247 276.455 209.974L279.346 217.678C282.986 230.978 276.41 244.569 264.096 249.42Z" fill="#010101"/>
<path d="M213.763 183.534C213.267 183.73 212.678 183.618 212.28 183.205C211.737 182.647 211.735 181.759 212.273 181.218C217.266 176.192 223.069 172.167 229.526 169.252C230.231 168.974 231.032 169.271 231.356 169.974C231.672 170.684 231.365 171.514 230.68 171.829C224.523 174.606 218.988 178.439 214.233 183.228C214.093 183.37 213.932 183.468 213.763 183.534Z" fill="#010101"/>
<path d="M201.135 246.953C200.428 247.231 199.625 246.868 199.34 246.145C191.672 226.662 194.265 205.041 206.271 188.305C206.714 187.705 207.576 187.556 208.196 188.026C208.809 188.486 208.952 189.371 208.506 189.994C197.055 205.948 194.584 226.565 201.895 245.139C202.18 245.862 201.84 246.675 201.135 246.953Z" fill="#010101"/>
<path d="M343.037 46.4176L288.355 68.7668C286.847 69.3832 285.118 68.6571 284.501 67.1461C283.884 65.635 284.611 63.9082 286.119 63.2918L340.801 40.9426C342.311 40.3253 344.036 41.0501 344.653 42.5611C345.27 44.0722 344.547 45.8003 343.037 46.4176Z" fill="white"/>
<path d="M364.909 37.4782L353.973 41.9479C352.465 42.5643 350.738 41.8373 350.121 40.3262C349.504 38.8152 350.229 37.0893 351.737 36.4729L362.673 32.0032C364.183 31.3859 365.908 32.1107 366.525 33.6217C367.142 35.1328 366.419 36.861 364.909 37.4782Z" fill="white"/>
<path d="M396.723 37.3306L342.077 59.6037C340.568 60.2188 338.835 59.4736 338.207 57.9394C337.578 56.4052 338.293 54.6623 339.802 54.0471L394.447 31.7741C395.957 31.1589 397.69 31.9041 398.318 33.4383C398.946 34.9725 398.236 36.7136 396.723 37.3306Z" fill="white"/>
<path d="M331.103 64.0698L325.635 66.3046C324.124 66.9219 322.399 66.1971 321.782 64.6861C321.165 63.1751 321.89 61.4491 323.4 60.8318L328.868 58.597C330.376 57.9806 332.101 58.7054 332.718 60.2164C333.335 61.7275 332.611 63.4534 331.103 64.0698Z" fill="white"/>
<path d="M314.534 70.8419L303.761 75.245C302.253 75.8614 300.528 75.1366 299.911 73.6256C299.294 72.1145 300.018 70.3886 301.526 69.7722L312.299 65.3691C313.807 64.7527 315.533 65.4775 316.15 66.9885C316.767 68.4996 316.042 70.2255 314.534 70.8419Z" fill="white"/>
<path d="M354.969 28.7631L327.629 39.9372C326.119 40.5545 324.394 39.8297 323.777 38.3187C323.16 36.8077 323.883 35.0795 325.394 34.4622L352.734 23.2881C354.244 22.6708 355.97 23.3978 356.587 24.9088C357.204 26.4199 356.484 28.144 354.969 28.7631Z" fill="white"/>
<path d="M351.978 68.3152L341.042 72.7849C339.532 73.4022 337.807 72.6774 337.19 71.1664C336.573 69.6553 337.296 67.9272 338.806 67.3099L349.742 62.8402C351.253 62.2229 352.979 62.9499 353.596 64.461C354.213 65.972 353.488 67.6979 351.978 68.3152Z" fill="white"/>
<path d="M425.664 302.03L425.64 289.066C425.635 288.18 425.537 287.315 425.357 286.479L181.465 287.48C181.292 288.321 181.197 289.189 181.202 290.075L181.304 303.032L187.436 303.009C187.436 303.036 187.444 303.12 187.453 303.234C187.453 303.475 187.453 303.718 187.485 303.986L213.901 534.017C214.552 539.711 220.043 544.309 226.162 544.284L383.096 543.636C389.216 543.614 394.663 538.968 395.26 533.268L419.081 306.978L419.1 306.785V306.773L419.495 303.032C419.527 302.718 419.532 302.434 419.52 302.161L419.532 302.052L425.664 302.03Z" fill="#C4C3C3"/>
<path d="M425.664 302.029L428.266 302.025L428.242 289.064V289.059C428.237 288.003 428.115 286.98 427.903 285.997L427.481 284.047L179.316 285.065L178.914 287.024C178.714 287.985 178.602 288.986 178.602 290.02V290.131L181.202 290.075L178.602 290.093L178.721 305.467L187.448 305.433L187.436 303.009H184.834L184.838 303.161C184.846 303.256 184.851 303.331 184.858 303.433L187.453 303.234L184.851 303.213V303.343C184.851 303.574 184.856 303.888 184.899 304.247L184.895 304.244L211.313 534.274C211.72 537.763 213.576 540.853 216.223 543.075C218.867 545.302 222.355 546.701 226.113 546.706H226.148L226.135 545.256L226.118 546.706H226.148L226.135 545.256L226.118 546.706L226.138 544.615L226.001 546.701L226.118 546.706L226.138 544.615L226.001 546.701L226.077 546.706L383.108 546.058C386.879 546.044 390.367 544.615 393.004 542.368C395.643 540.119 397.48 537.007 397.848 533.506L421.669 307.212V307.216L421.69 307.025V306.984L422.083 303.268V303.263C422.117 302.961 422.125 302.677 422.125 302.418C422.125 302.297 422.125 302.193 422.12 302.098L419.52 302.161L422.112 302.37L422.125 302.259L419.532 302.052L419.544 304.474L428.269 304.44L428.266 302.025L425.664 302.029L425.652 299.605L417.142 299.639L416.917 302.091L416.922 302.225V302.418C416.922 302.547 416.917 302.668 416.905 302.797V302.793L416.512 306.557L416.507 306.58L416.49 306.734V306.739L392.672 533.031C392.443 535.232 391.257 537.286 389.494 538.795C387.73 540.301 385.433 541.21 383.084 541.212L226.15 541.86L226.162 544.284L226.321 541.864L226.138 541.86H226.106L226.113 542.83V541.86H226.106L226.113 542.83V541.86C223.774 541.864 221.477 540.971 219.706 539.479C217.933 537.991 216.735 535.946 216.486 533.758L190.07 303.729V303.724C190.058 303.622 190.053 303.52 190.053 303.343V303.138L190.046 303.031L190.036 302.922V302.915L188.363 303.009H190.036C190.036 302.906 190.036 302.915 190.036 302.915L188.363 303.009H190.036V300.575L183.885 300.598L183.802 290.032V290.018H183.716L183.802 290.02V290.018H183.716L183.802 290.02C183.802 289.314 183.88 288.623 184.021 287.939L181.465 287.48L181.477 289.904L425.369 288.9L425.357 286.478L422.803 286.958C422.954 287.651 423.039 288.355 423.039 289.077V289.071L423.064 302.034L425.664 302.029L425.652 299.605L425.664 302.029Z" fill="#330E12"/>
<path d="M239.648 325.414C239.302 320.189 233.199 315.979 226.016 316.011C218.835 316.04 213.401 320.296 213.881 325.519L231.524 518.003C232.004 523.224 237.031 527.438 242.753 527.415C248.48 527.392 252.837 523.137 252.488 517.916L239.648 325.414Z" fill="#E7E6E6"/>
<path d="M239.648 325.414L242.246 325.262C242.131 323.544 241.541 321.92 240.614 320.495C239.226 318.358 237.116 316.645 234.611 315.454C232.104 314.264 229.182 313.587 226.089 313.582H226.052L225.906 313.587L226.016 316.011L226.004 313.587C222.038 313.605 218.442 314.729 215.742 316.701C214.393 317.69 213.271 318.898 212.483 320.284C211.696 321.67 211.247 323.244 211.247 324.88C211.247 325.16 211.259 325.439 211.288 325.728V325.723L228.931 518.207C229.235 521.478 230.943 524.382 233.414 526.461C235.885 528.537 239.165 529.837 242.709 529.837H242.741L242.729 528.278L242.709 529.837H242.741L242.729 528.278L242.709 529.837L242.734 527.717L242.587 529.832L242.709 529.837L242.734 527.717L242.587 529.832L242.675 529.837H242.765C246.187 529.825 249.297 528.58 251.524 526.529C253.754 524.489 255.112 521.622 255.107 518.498C255.107 518.252 255.1 518.009 255.083 517.764L242.246 325.262L239.648 325.414L237.055 325.562L249.89 518.064C249.902 518.211 249.905 518.355 249.905 518.498C249.902 520.324 249.139 521.91 247.87 523.08C246.597 524.246 244.829 524.979 242.741 524.991L242.753 527.415L242.919 524.998L242.729 524.991H242.697L242.709 526.145V524.991H242.697L242.709 526.145V524.991C240.551 524.995 238.472 524.189 236.902 522.864C235.319 521.535 234.287 519.729 234.114 517.793L216.469 325.312C216.457 325.164 216.449 325.023 216.449 324.88C216.454 324.051 216.664 323.29 217.079 322.551C217.701 321.456 218.811 320.427 220.355 319.671C221.891 318.914 223.838 318.439 226.028 318.433L226.094 318.428H226.126L226.052 316.79V318.428H226.126L226.052 316.79V318.428H226.089C229.113 318.426 231.901 319.334 233.87 320.7C234.853 321.386 235.628 322.172 236.165 322.999C236.697 323.826 236.994 324.678 237.055 325.562L239.648 325.414Z" fill="#330E12"/>
<path d="M290.868 325.2C290.78 319.977 284.887 315.767 277.704 315.797C270.52 315.829 264.879 320.084 265.098 325.307L273.189 517.827C273.408 523.053 278.228 527.269 283.95 527.244C289.677 527.222 294.241 522.966 294.153 517.746L290.868 325.2Z" fill="#E7E6E6"/>
<path d="M290.868 325.201L293.47 325.164C293.441 323.442 292.929 321.802 292.063 320.359C290.763 318.187 288.711 316.454 286.243 315.252C283.772 314.053 280.87 313.375 277.777 313.375H277.599L277.704 315.797L277.691 313.375C273.628 313.394 269.93 314.571 267.147 316.604C265.757 317.619 264.598 318.86 263.776 320.287C262.957 321.711 262.488 323.329 262.488 325.012C262.488 325.142 262.493 325.273 262.5 325.41L262.496 325.403L270.594 517.923C270.73 521.199 272.308 524.148 274.706 526.252C277.099 528.36 280.355 529.667 283.899 529.667H283.955L283.948 529.228L283.95 529.667H283.955L283.948 529.228L283.95 529.667L283.926 527.524L283.728 529.66C283.828 529.667 283.901 529.667 283.936 529.667C283.943 529.667 283.95 529.667 283.95 529.667L283.926 527.524L283.728 529.66L283.838 529.667H283.962C287.482 529.655 290.694 528.342 293.007 526.218C295.319 524.103 296.758 521.142 296.758 517.894L296.753 517.716V517.705L293.47 325.164L288.267 325.239L291.551 517.782V517.771L291.555 517.894C291.551 519.802 290.726 521.504 289.353 522.765C287.98 524.025 286.084 524.814 283.938 524.821L283.95 527.245L284.175 524.83C284.045 524.821 283.95 524.821 283.906 524.821H283.87L283.899 526.525V524.821H283.87L283.899 526.525V524.821C281.74 524.821 279.752 524.025 278.274 522.728C276.799 521.424 275.872 519.666 275.791 517.735L267.696 325.212V325.21L267.691 325.012C267.696 324.153 267.923 323.351 268.364 322.574C269.028 321.411 270.215 320.321 271.835 319.523C273.45 318.724 275.474 318.228 277.713 318.221H277.757L277.806 318.217L277.74 316.679V318.221L277.806 318.217L277.74 316.679V318.221H277.777C280.806 318.217 283.516 319.121 285.382 320.466C286.316 321.136 287.036 321.909 287.516 322.715C287.999 323.524 288.25 324.358 288.267 325.239L290.868 325.201Z" fill="#330E12"/>
<path d="M342.085 324.994C342.255 319.766 336.575 315.552 329.389 315.581C322.208 315.613 316.354 319.871 316.315 325.096L314.854 517.659C314.818 522.882 319.423 527.099 325.15 527.074C330.872 527.051 335.653 522.796 335.823 517.571L342.085 324.994Z" fill="#E7E6E6"/>
<path d="M342.085 324.994L344.687 325.062C344.687 324.962 344.69 324.864 344.69 324.762C344.69 323.074 344.224 321.454 343.397 320.03C342.163 317.887 340.17 316.177 337.765 314.995C335.355 313.819 332.511 313.16 329.467 313.16H329.413L329.23 313.162L329.389 315.582L329.377 313.16C325.24 313.182 321.442 314.4 318.574 316.483C317.144 317.524 315.939 318.789 315.083 320.246C314.23 321.7 313.725 323.351 313.713 325.08L312.254 517.644V517.632V517.728C312.254 520.986 313.705 523.955 316.03 526.07C318.349 528.194 321.574 529.496 325.101 529.496V527.558L324.911 529.489L325.101 529.496V527.558L324.911 529.489L325.035 529.496H325.162C328.718 529.48 331.977 528.153 334.362 526.025C336.753 523.9 338.314 520.933 338.418 517.648L344.687 325.064L342.085 324.994L339.484 324.917L333.221 517.501C333.155 519.434 332.243 521.211 330.769 522.524C329.296 523.832 327.303 524.643 325.137 524.65L325.15 527.074L325.389 524.662C325.272 524.65 325.169 524.65 325.101 524.65C322.952 524.65 321.052 523.866 319.671 522.61C318.293 521.347 317.459 519.643 317.457 517.728V517.678L318.915 325.114C318.922 324.228 319.171 323.388 319.647 322.574C320.359 321.354 321.63 320.205 323.325 319.369C325.02 318.53 327.12 318.017 329.401 318.006H329.479L329.552 318.001L329.43 316.193L329.442 318.006L329.552 318.001L329.43 316.193L329.442 318.006L329.438 317.501L329.433 318.006H329.442L329.438 317.501L329.433 318.006H329.467C332.445 318.001 335.055 318.88 336.814 320.166C337.699 320.809 338.37 321.547 338.814 322.32C339.26 323.097 339.484 323.899 339.487 324.762L339.484 324.921L342.085 324.994Z" fill="#330E12"/>
<path d="M393.306 324.778C393.733 319.553 388.257 315.343 381.077 315.37C373.896 315.4 367.832 319.66 367.534 324.887L356.524 517.489C356.224 522.712 360.622 526.929 366.349 526.906C372.071 526.884 377.057 522.626 377.489 517.401L393.306 324.778Z" fill="#E7E6E6"/>
<path d="M393.306 324.778L395.899 324.962C395.919 324.71 395.926 324.455 395.926 324.205C395.931 322.567 395.484 320.991 394.692 319.607C393.501 317.519 391.57 315.854 389.233 314.716C386.891 313.575 384.125 312.948 381.15 312.948H381.101L380.911 312.955L381.076 315.37L381.064 312.948C376.928 312.971 373.093 314.189 370.156 316.245C368.688 317.278 367.444 318.523 366.527 319.962C365.612 321.397 365.032 323.033 364.934 324.758L353.924 517.36C353.912 517.569 353.907 517.775 353.907 517.987C353.905 521.131 355.268 524 357.512 526.043C359.751 528.092 362.873 529.33 366.303 529.33L366.356 529.326L366.32 527.308L366.276 529.326H366.356L366.32 527.308L366.276 529.326L366.327 527.042L365.998 529.307C366.117 529.321 366.21 529.326 366.276 529.326L366.327 527.042L365.998 529.307L366.178 529.33H366.356C369.915 529.31 373.196 527.994 375.659 525.893C378.123 523.791 379.808 520.87 380.081 517.587L395.899 324.962L393.306 324.778L390.714 324.596L374.896 517.216C374.737 519.157 373.715 520.974 372.144 522.319C370.574 523.66 368.503 524.477 366.337 524.484L366.349 526.906L366.698 524.507C366.52 524.484 366.388 524.484 366.325 524.484H366.266L366.303 526.304V524.484H366.266L366.303 526.304V524.484C364.21 524.48 362.434 523.75 361.159 522.583C359.883 521.413 359.115 519.825 359.11 517.987C359.11 517.866 359.115 517.741 359.122 517.616L370.132 325.017C370.181 324.126 370.474 323.272 371 322.433C371.793 321.188 373.152 320.016 374.91 319.166C376.667 318.319 378.808 317.801 381.089 317.792H381.167L381.242 317.79L381.118 315.938L381.13 317.792L381.242 317.79L381.118 315.938L381.13 317.792L381.12 317.167V317.792H381.13L381.12 317.167V317.792H381.15C384.064 317.79 386.555 318.626 388.218 319.846C389.05 320.45 389.679 321.148 390.094 321.877C390.509 322.613 390.726 323.376 390.726 324.205C390.726 324.335 390.721 324.462 390.714 324.596L393.306 324.778Z" fill="#330E12"/>
<path d="M458.787 334.034L449.563 327.388L458.787 334.029L460.397 332.303C460.448 332.243 460.522 332.171 460.605 332.084C460.58 332.109 460.556 332.137 460.526 332.164L458.787 334.034ZM460.8 331.875C460.863 331.8 460.934 331.721 461.009 331.63L461.007 331.637L468.01 323.195L461.007 331.637C460.936 331.716 460.868 331.796 460.8 331.875ZM472.764 317.415C474.708 314.745 475.654 311.671 475.654 308.636C475.654 308.28 475.642 307.923 475.613 307.568C475.873 311.074 474.876 314.507 472.764 317.415ZM475.337 305.599C474.576 302.002 472.464 298.629 469.11 296.214L425.891 265.095L469.11 296.214C472.368 298.563 474.556 301.864 475.337 305.599ZM431.098 258.823L437.35 251.289C439.223 249.033 440.389 246.464 440.879 243.824C440.394 246.464 439.226 249.029 437.35 251.289L431.098 258.823ZM416.649 247.5L418.751 244.966C418.771 244.941 418.793 244.914 418.817 244.887C418.793 244.919 418.771 244.944 418.747 244.971L416.649 247.5ZM440.879 243.821C440.879 243.817 440.884 243.812 440.884 243.812C440.884 243.812 440.879 243.817 440.879 243.821ZM418.929 240.47C418.683 240.123 418.373 239.807 418.007 239.546L411.488 234.856C411.488 234.856 411.488 234.856 411.488 234.852L418.003 239.546C418.378 239.811 418.686 240.125 418.929 240.47ZM434.828 228.041C434.825 228.039 434.82 228.034 434.816 228.029C434.82 228.034 434.825 228.039 434.828 228.041ZM434.808 228.023C434.801 228.018 434.796 228.011 434.789 228.007C434.796 228.011 434.801 228.018 434.808 228.023ZM434.789 228.007C434.552 227.823 434.318 227.641 434.074 227.466L387.538 193.962L434.074 227.466C434.318 227.641 434.552 227.823 434.789 228.007Z" fill="#BDBCBD"/>
<path d="M226.113 546.706C225.733 546.706 225.355 546.69 224.979 546.665C225.355 546.69 225.733 546.706 226.113 546.706H226.148L383.108 546.058C383.511 546.058 383.908 546.04 384.303 546.006C383.908 546.04 383.511 546.058 383.108 546.058L226.113 546.706ZM211.41 534.951C211.374 534.728 211.342 534.501 211.313 534.274C211.342 534.501 211.374 534.728 211.41 534.951ZM397.682 534.604C397.755 534.245 397.809 533.877 397.848 533.506L412.553 393.81C412.553 393.805 412.553 393.805 412.553 393.805L397.848 533.506C397.811 533.877 397.755 534.245 397.682 534.604Z" fill="#BDBCBD"/>
<path d="M226.167 541.86H226.106H226.101C223.765 541.86 221.477 540.967 219.706 539.479C217.933 537.991 216.735 535.946 216.486 533.758L216.015 529.628C221.862 528.683 227.672 527.622 233.419 526.463C235.88 528.53 239.141 529.825 242.663 529.837H242.765C246.187 529.825 249.297 528.58 251.524 526.529C253.1 525.086 254.241 523.23 254.776 521.165C260.066 519.609 265.318 517.893 270.511 516.046L270.593 517.923C270.73 521.199 272.308 524.148 274.706 526.252C277.086 528.346 280.313 529.65 283.833 529.666H283.962C287.482 529.655 290.694 528.342 293.007 526.218C295.319 524.102 296.758 521.142 296.758 517.893L296.753 517.716V517.705L296.551 505.593C299.741 504.173 302.902 502.717 306.032 501.231C308.183 500.218 310.303 499.155 312.405 498.053L312.254 517.643V517.632V517.728C312.254 520.985 313.705 523.955 316.03 526.07C318.33 528.176 321.52 529.478 325.011 529.496H325.162C328.718 529.48 331.977 528.153 334.362 526.024C336.752 523.9 338.314 520.933 338.418 517.648L339.614 480.911C345.465 476.822 351.239 472.585 356.741 468.091L353.924 517.359C353.912 517.568 353.907 517.775 353.907 517.986C353.904 521.131 355.268 524 357.512 526.043C359.719 528.065 362.783 529.296 366.156 529.326L366.178 529.33H366.356C369.915 529.31 373.196 527.994 375.659 525.893C378.123 523.791 379.808 520.87 380.081 517.587L386.684 437.164C389.787 433.249 392.772 429.274 395.67 425.286C399.58 419.9 402.848 414.202 405.795 408.354L392.672 533.031C392.443 535.232 391.257 537.286 389.494 538.795C387.73 540.301 385.433 541.21 383.084 541.212L226.167 541.86Z" fill="#949293"/>
<path d="M226.113 546.706C225.733 546.706 225.355 546.69 224.979 546.665C218.316 546.149 212.484 541.144 211.41 534.951C211.374 534.728 211.342 534.501 211.313 534.274L210.874 530.432C212.588 530.178 214.303 529.91 216.015 529.628L216.486 533.758C216.735 535.946 217.933 537.991 219.706 539.479C221.477 540.967 223.765 541.86 226.101 541.86H226.106H226.167L383.084 541.212C385.433 541.21 387.73 540.301 389.494 538.795C391.257 537.286 392.443 535.233 392.672 533.031L405.795 408.354C408.2 403.576 410.395 398.701 412.554 393.81L397.848 533.506C397.809 533.876 397.755 534.244 397.682 534.603C396.485 540.622 390.818 545.449 384.303 546.006C383.908 546.04 383.511 546.058 383.108 546.058L226.148 546.706H226.113Z" fill="#290B0D"/>
<path d="M242.758 524.991H242.697C242.112 524.991 241.534 524.932 240.968 524.821C243.271 524.28 245.561 523.705 247.849 523.099C246.58 524.25 244.827 524.975 242.758 524.991Z" fill="#ACABAB"/>
<path d="M242.675 529.837H242.663C239.141 529.825 235.88 528.531 233.419 526.463C233.528 526.445 233.633 526.422 233.743 526.399C236.158 525.911 238.568 525.384 240.968 524.821C241.534 524.932 242.112 524.991 242.697 524.991H242.758C244.827 524.975 246.58 524.25 247.849 523.098C250.161 522.485 252.476 521.842 254.776 521.165C254.242 523.23 253.1 525.086 251.524 526.529C249.297 528.581 246.188 529.825 242.765 529.837H242.675Z" fill="#290B0D"/>
<path d="M283.987 524.821C283.96 524.821 283.938 524.821 283.919 524.821C283.914 524.821 283.911 524.821 283.906 524.821H283.875C281.723 524.814 279.745 524.019 278.274 522.728C276.799 521.424 275.872 519.666 275.791 517.735L275.64 514.175C280.953 512.189 286.204 510.069 291.385 507.85L291.551 517.782L291.555 517.894C291.551 519.802 290.726 521.504 289.353 522.765C287.992 524.019 286.114 524.802 283.987 524.821Z" fill="#ACABAB"/>
<path d="M283.838 529.666H283.833C280.313 529.65 277.086 528.346 274.706 526.252C272.308 524.148 270.73 521.199 270.593 517.923L270.51 516.046C272.225 515.435 273.937 514.815 275.64 514.174L275.791 517.734C275.872 519.665 276.799 521.424 278.274 522.728C279.745 524.018 281.723 524.813 283.875 524.82H283.906C283.911 524.82 283.914 524.82 283.918 524.82C283.938 524.82 283.96 524.82 283.987 524.82C286.114 524.802 287.992 524.018 289.353 522.764C290.726 521.503 291.55 519.802 291.555 517.893L291.55 517.78L291.385 507.849C293.116 507.106 294.836 506.359 296.551 505.593L296.753 517.705V517.716L296.758 517.893C296.758 521.142 295.319 524.102 293.007 526.218C290.694 528.342 287.482 529.655 283.962 529.666H283.838Z" fill="#290B0D"/>
<path d="M325.206 524.65C325.174 524.65 325.142 524.65 325.113 524.65C325.108 524.65 325.106 524.65 325.101 524.65C322.952 524.65 321.052 523.866 319.671 522.61C318.293 521.347 317.459 519.643 317.457 517.728V517.678L317.627 495.195C321.508 492.987 325.301 490.64 328.991 488.161C330.755 486.975 332.523 485.783 334.289 484.579L333.221 517.501C333.155 519.434 332.243 521.211 330.769 522.524C329.311 523.821 327.347 524.628 325.206 524.65Z" fill="#ACABAB"/>
<path d="M325.035 529.496H325.011C321.52 529.478 318.33 528.176 316.03 526.07C313.705 523.955 312.254 520.986 312.254 517.728V517.632V517.644L312.405 498.053C314.164 497.128 315.903 496.174 317.627 495.195L317.457 517.678V517.728C317.459 519.643 318.293 521.347 319.671 522.61C321.052 523.866 322.952 524.65 325.101 524.65C325.106 524.65 325.108 524.65 325.113 524.65C325.142 524.65 325.174 524.65 325.206 524.65C327.347 524.627 329.311 523.821 330.769 522.524C332.243 521.21 333.155 519.434 333.221 517.5L334.289 484.578C336.07 483.368 337.845 482.145 339.614 480.912L338.418 517.648C338.314 520.933 336.753 523.9 334.362 526.025C331.977 528.153 328.718 529.48 325.162 529.496H325.035Z" fill="#290B0D"/>
<path d="M366.398 524.484C366.369 524.484 366.344 524.484 366.325 524.484H366.276C364.198 524.473 362.43 523.742 361.159 522.583C359.883 521.413 359.115 519.825 359.11 517.987C359.11 517.866 359.115 517.741 359.122 517.617L362.215 463.452C363.508 462.307 364.778 461.153 366.032 459.976C371.281 455.033 376.216 449.732 380.886 444.234L374.896 517.217C374.737 519.157 373.715 520.974 372.145 522.319C370.591 523.644 368.54 524.462 366.398 524.484Z" fill="#ACABAB"/>
<path d="M366.178 529.33L366.156 529.326C362.783 529.296 359.719 528.065 357.512 526.043C355.268 524 353.905 521.131 353.907 517.987C353.907 517.775 353.912 517.569 353.924 517.36L356.741 468.091C358.597 466.574 360.427 465.029 362.215 463.452L359.122 517.616C359.115 517.741 359.11 517.866 359.11 517.987C359.115 519.825 359.883 521.413 361.159 522.583C362.429 523.741 364.198 524.473 366.276 524.484H366.325C366.344 524.484 366.369 524.484 366.398 524.484C368.539 524.462 370.591 523.644 372.144 522.319C373.715 520.974 374.737 519.157 374.896 517.217L380.886 444.234C382.864 441.91 384.796 439.547 386.684 437.164L380.081 517.587C379.808 520.87 378.123 523.791 375.659 525.893C373.196 527.994 369.915 529.31 366.356 529.33H366.178Z" fill="#290B0D"/>
<path d="M339.584 182.062L355.212 161.828C357.47 158.909 361.659 158.373 364.572 160.628L412.006 197.307C414.922 199.561 415.459 203.756 413.204 206.674L397.576 226.904L408.254 235.165L427.511 210.237C432.724 203.496 431.473 193.767 424.735 188.557L369.826 146.096C363.09 140.886 353.371 142.13 348.161 148.871L328.904 173.802L339.584 182.062Z" fill="#C4C3C3"/>
<path d="M339.584 182.062L341.616 183.631L357.244 163.4C358.061 162.347 359.261 161.809 360.497 161.804C361.382 161.804 362.244 162.079 362.999 162.66L410.432 199.344C411.486 200.157 412.023 201.357 412.028 202.594C412.028 203.474 411.753 204.342 411.167 205.102L393.97 227.367L408.714 238.774L429.548 211.807C432.073 208.537 433.3 204.643 433.3 200.803C433.305 195.419 430.895 190.069 426.311 186.525L371.399 144.059C368.132 141.532 364.24 140.303 360.401 140.303C355.019 140.298 349.672 142.709 346.129 147.302L325.298 174.265L340.047 185.669L341.616 183.631L339.584 182.062L341.155 180.024L332.509 173.339L350.195 150.448C352.733 147.162 356.535 145.45 360.401 145.445C363.155 145.445 365.91 146.318 368.255 148.129L423.166 190.59C426.444 193.126 428.157 196.935 428.162 200.803C428.157 203.559 427.29 206.314 425.48 208.66L407.796 231.558L401.178 226.444L415.235 208.243C416.532 206.567 417.17 204.564 417.168 202.594C417.17 199.838 415.929 197.092 413.577 195.274L366.144 158.59C364.469 157.293 362.466 156.659 360.497 156.662C357.743 156.659 354.995 157.903 353.181 160.259L337.55 180.487L339.584 182.062L341.155 180.024L339.584 182.062Z" fill="#330E12"/>
<path d="M450.379 296.096C450.548 295.899 450.728 295.711 450.89 295.501L461.884 281.266C466.636 275.115 465.506 266.272 459.353 261.517L290.536 130.967C284.388 126.21 275.551 127.343 270.796 133.496L259.803 147.731C259.639 147.941 259.501 148.158 259.357 148.375L450.379 296.096Z" fill="#C4C3C3"/>
<path d="M450.379 296.096L452.319 297.781C452.442 297.634 452.659 297.408 452.924 297.068L452.921 297.075L463.915 282.84C466.253 279.817 467.393 276.217 467.393 272.666C467.395 267.694 465.164 262.756 460.927 259.482L292.107 128.932C289.088 126.591 285.49 125.451 281.94 125.451C276.973 125.451 272.038 127.681 268.765 131.922L257.836 146.067L257.776 146.149C257.511 146.489 257.345 146.759 257.229 146.928L255.872 148.924L450.728 299.614L452.319 297.781L450.379 296.096L451.948 294.061L260.928 146.337L259.357 148.375L261.477 149.821C261.663 149.551 261.767 149.387 261.832 149.31L272.833 135.068C275.101 132.127 278.491 130.601 281.94 130.593C284.4 130.596 286.863 131.377 288.962 133L457.782 263.552C460.717 265.823 462.248 269.213 462.252 272.666C462.248 275.127 461.474 277.589 459.852 279.696L448.853 293.929L448.849 293.933C448.793 294.011 448.656 294.162 448.434 294.411L450.379 296.096L451.948 294.061L450.379 296.096Z" fill="#330E12"/>
<path d="M414.161 223.317L413.891 223.109C413.016 219.939 412.071 216.785 411.064 213.646L415.236 208.243C416.532 206.567 417.171 204.564 417.168 202.594C417.171 199.838 415.93 197.092 413.578 195.274L399.757 184.588C397.865 180.441 395.875 176.321 393.785 172.229C392.469 169.642 391.06 167.103 389.57 164.613L423.167 190.589C426.444 193.126 428.157 196.935 428.162 200.802C428.157 203.558 427.29 206.314 425.48 208.66L414.161 223.317Z" fill="#949293"/>
<path d="M418.226 226.458L414.161 223.317L425.48 208.66C427.29 206.314 428.157 203.558 428.162 200.802C428.157 196.935 426.444 193.126 423.167 190.589L389.57 164.613C387.035 160.362 384.264 156.251 381.309 152.288C380.984 151.849 380.659 151.408 380.333 150.969L426.312 186.524C426.552 186.71 426.784 186.903 427.018 187.098C427.025 187.103 427.03 187.11 427.037 187.115C427.042 187.12 427.042 187.12 427.044 187.122C427.049 187.127 427.054 187.132 427.056 187.134C431.98 191.378 434.083 197.801 433.04 203.872C433.04 203.872 433.035 203.876 433.035 203.881C433.035 203.884 433.035 203.884 433.035 203.884C432.551 206.685 431.399 209.412 429.548 211.806L423.371 219.801L418.226 226.458ZM411.064 213.646C410.433 211.686 409.78 209.73 409.095 207.785L411.168 205.101C411.192 205.072 411.214 205.046 411.238 205.012C411.862 204.161 412.132 203.122 411.994 202.068C411.915 201.436 411.693 200.848 411.353 200.33L411.349 200.325C411.108 199.958 410.804 199.626 410.433 199.344L403.996 194.362C402.646 191.088 401.234 187.826 399.757 184.588L413.578 195.274C415.93 197.092 417.171 199.838 417.168 202.594C417.171 204.564 416.532 206.567 415.236 208.243L411.064 213.646Z" fill="#290B0D"/>
<path d="M449.95 292.511L421.54 270.544C420.93 257.112 419.009 244.02 415.975 231.22L457.782 263.552C460.717 265.823 462.248 269.213 462.252 272.666C462.248 275.127 461.474 277.589 459.852 279.696L449.95 292.511Z" fill="#949293"/>
<path d="M450.728 299.614L441.614 292.566L421.728 277.189C421.728 276.984 421.728 276.779 421.725 276.574C421.692 274.556 421.631 272.548 421.54 270.544L449.95 292.511L459.852 279.696C461.474 277.589 462.248 275.127 462.252 272.666C462.248 269.213 460.717 265.823 457.782 263.552L415.975 231.22C415.327 228.5 414.633 225.8 413.891 223.109L414.161 223.317L418.226 226.458L460.927 259.482C464.241 262.045 466.328 265.625 467.08 269.442C467.152 269.804 467.212 270.17 467.255 270.539C467.299 270.872 467.333 271.202 467.352 271.532C467.381 271.909 467.393 272.287 467.393 272.666C467.393 275.887 466.458 279.149 464.537 281.982C464.339 282.274 464.132 282.561 463.915 282.838L459.84 288.116L452.921 297.075L452.924 297.068C452.849 297.164 452.779 297.249 452.717 297.328C452.652 297.4 452.586 297.478 452.524 297.55C452.442 297.642 452.37 297.719 452.319 297.781L450.728 299.614ZM450.379 296.096L451.948 294.061L450.379 296.096Z" fill="#290B0D"/>
</g>
<defs>
<clipPath id="clip0_130_17">
<rect width="583" height="568" fill="white"/>
</clipPath>
</defs>
</svg>
