<svg width="60" height="60" viewBox="0 0 60 60" fill="none" xmlns="http://www.w3.org/2000/svg">
<path d="M15.085 52.1672C14.3072 52.1672 13.7183 51.462 13.8542 50.6937L15.3686 42.1334H6.8563C6.07975 42.1334 5.49115 41.4305 5.625 40.6629L6.0625 38.1545C6.16718 37.5545 6.68658 37.1165 7.2938 37.1165H16.2436L18.8936 22.0658H10.3813C9.60476 22.0658 9.01616 21.3629 9.15001 20.5954L9.58751 18.0869C9.69218 17.4868 10.2116 17.0489 10.8188 17.0489H19.7686L21.3605 8.05017C21.4664 7.45138 21.9851 7.01514 22.5912 7.01514H25.0521C25.8298 7.01514 26.4188 7.72019 26.2828 8.48855L24.7686 17.0489H39.7686L41.3605 8.05017C41.4663 7.45138 41.985 7.01514 42.5913 7.01514H45.0521C45.8298 7.01514 46.4188 7.72019 46.2828 8.48855L44.7686 17.0489H53.2808C54.0573 17.0489 54.6461 17.7519 54.5121 18.5193L54.0746 21.0278C53.9701 21.6279 53.4506 22.0658 52.8433 22.0658H43.8936L41.2436 37.1165H49.7558C50.5323 37.1165 51.1211 37.8194 50.9871 38.5869L50.5496 41.0954C50.4451 41.6954 49.9256 42.1334 49.3183 42.1334H40.3686L38.7765 51.1322C38.6708 51.7309 38.152 52.1672 37.5458 52.1672H35.085C34.3073 52.1672 33.7183 51.462 33.8543 50.6937L35.3685 42.1334H20.3686L18.7767 51.1322C18.6707 51.7309 18.152 52.1672 17.5459 52.1672H15.085ZM23.8947 22.0658L21.2447 37.1165H36.2445L38.8946 22.0658H23.8947Z" fill="#FF0050"/>
</svg>
