<svg width="60" height="60" viewBox="0 0 60 60" fill="none" xmlns="http://www.w3.org/2000/svg">
<path d="M53.8191 20.1014C53.0816 19.65 52.1591 19.613 51.3866 19.9929L45.0041 23.1429V17.2671C45.0041 14.5462 42.7616 12.3335 40.0041 12.3335H10.0041C7.24665 12.3335 5.00415 14.5462 5.00415 17.2671V41.9349C5.00415 44.6582 7.24665 46.8684 10.0041 46.8684H40.0041C42.7616 46.8684 45.0041 44.6582 45.0041 41.9349V36.059L51.3866 39.2066C51.7391 39.3818 52.1216 39.4681 52.5041 39.4681C52.9616 39.4681 53.4166 39.3423 53.8191 39.1005C54.5541 38.6491 55.0041 37.8573 55.0041 37.0013V22.2006C55.0041 21.3446 54.5541 20.5528 53.8191 20.1014Z" fill="#FF0050"/>
</svg>
