<svg width="60" height="60" viewBox="0 0 60 60" fill="none" xmlns="http://www.w3.org/2000/svg">
<path d="M42.6253 40.7498C42.6253 41.7829 41.7834 42.6248 40.7503 42.6248H31.3752V46.3749H38.8752C38.8752 47.408 38.0334 48.2499 37.0002 48.2499H22.7764L18.2501 43.7236V34.0277L22.7764 29.4995H29.5002V31.3746C29.5002 32.4077 28.6583 33.2496 27.6252 33.2496H23.8751V36.9997H27.6252C30.7264 36.9997 33.2502 34.4759 33.2502 31.3746V27.6245C33.2502 26.5895 32.4102 25.7494 31.3752 25.7494H22.0001C21.5032 25.7494 21.0251 25.9444 20.6745 26.3007L17.2376 29.7358C16.9751 29.5989 16.6919 29.4995 16.3751 29.4995H8.87501C7.84001 29.4995 7 30.3395 7 31.3746V46.3749C7 47.4118 7.84001 48.2499 8.87501 48.2499H16.3751C16.6919 48.2499 16.9751 48.1524 17.2376 48.0137L20.6745 51.4525C21.0251 51.8012 21.5032 52 22.0001 52H37.0002C40.1015 52 42.6253 49.4762 42.6253 46.3749V46.0299C44.804 45.2536 46.3753 43.1911 46.3753 40.7498V38.8747H42.6253V40.7498ZM14.5001 44.4998H10.75V33.2496H14.5001V44.4998Z" fill="#FF0050"/>
<path d="M35.1252 12.6251V14.5958C32.9877 15.0308 31.3752 16.9246 31.3752 19.1878C31.3752 21.7716 33.4789 23.8754 36.0627 23.8754H37.9377C38.4552 23.8754 38.8752 24.2954 38.8752 24.8129C38.8752 25.3304 38.4552 25.7504 37.9377 25.7504H35.1252V31.3755H38.8752V29.4067C41.0128 28.9717 42.6253 27.0779 42.6253 24.8129C42.6253 22.2291 40.5215 20.1253 37.9377 20.1253H36.0627C35.5452 20.1253 35.1252 19.7053 35.1252 19.1878C35.1252 18.6703 35.5452 18.2502 36.0627 18.2502H42.6253V14.5002H38.8752V12.6251H35.1252Z" fill="#FF0050"/>
<path d="M36.9999 7C28.7292 7 21.9998 13.7314 21.9998 22.0003C21.9998 22.6359 22.0523 23.2585 22.1291 23.8753H25.9186C25.8154 23.266 25.7498 22.6397 25.7498 22.0003C25.7498 15.7977 30.7955 10.7501 36.9999 10.7501C43.2043 10.7501 48.25 15.7977 48.25 22.0003C48.25 28.2067 43.2043 33.2505 36.9999 33.2505C36.3605 33.2505 35.7361 33.1849 35.1249 33.0818V36.8731C35.7399 36.9481 36.3643 37.0006 36.9999 37.0006C45.2706 37.0006 52 30.2711 52 22.0003C52 13.7314 45.2706 7 36.9999 7Z" fill="#FF0050"/>
</svg>
