<svg width="60" height="60" viewBox="0 0 60 60" fill="none" xmlns="http://www.w3.org/2000/svg">
<path d="M53 48.7733L40.6853 36.458C43.172 33.2702 44.5352 29.3767 44.5352 25.2685C44.5352 20.3886 42.6331 15.8009 39.1828 12.3527C35.7348 8.89993 31.1474 7 26.2676 7C21.3879 7 16.8004 8.89993 13.3524 12.3527C9.90212 15.8009 8 20.3886 8 25.2685C8 30.1485 9.90212 34.7362 13.3524 38.1844C16.8004 41.6372 21.3879 43.5371 26.2676 43.5371C30.3756 43.5371 34.2688 42.1761 37.4565 39.687L49.7712 52L53 48.7733ZM26.2676 38.97C22.6072 38.97 19.1684 37.545 16.5812 34.9577C13.9918 32.3704 12.5669 28.9291 12.5669 25.2685C12.5669 21.6103 13.9918 18.1689 16.5812 15.5817C19.1684 12.9921 22.6072 11.5671 26.2676 11.5671C29.928 11.5671 33.3669 12.9921 35.954 15.5817C38.5435 18.1689 39.9683 21.6103 39.9683 25.2685C39.9683 28.9291 38.5435 32.3704 35.954 34.9577C33.3669 37.545 29.928 38.97 26.2676 38.97Z" fill="#FF0050"/>
</svg>
