<svg width="60" height="60" viewBox="0 0 60 60" fill="none" xmlns="http://www.w3.org/2000/svg">
<path d="M28.9944 11.7974C13.1144 11.7974 1.49438 29.7126 1.49438 29.7126C1.49438 29.7126 13.1144 47.6279 28.9944 47.6279C44.8744 47.6279 56.4944 29.7126 56.4944 29.7126C56.4944 29.7126 44.8744 11.7974 28.9944 11.7974ZM28.9944 39.9499C23.4719 39.9499 18.9944 35.3687 18.9944 29.7126C18.9944 24.0565 23.4719 19.4753 28.9944 19.4753C34.5169 19.4753 38.9944 24.0565 38.9944 29.7126C38.9944 35.3687 34.5169 39.9499 28.9944 39.9499Z" fill="#FF0050"/>
<path d="M28.9944 34.8307C31.7559 34.8307 33.9944 32.5391 33.9944 29.7121C33.9944 26.8851 31.7559 24.5934 28.9944 24.5934C26.2329 24.5934 23.9944 26.8851 23.9944 29.7121C23.9944 32.5391 26.2329 34.8307 28.9944 34.8307Z" fill="#FF0050"/>
</svg>
